<mxfile host="app.diagrams.net" agent="Mozilla/5.0 (Macintosh; Intel Mac OS X 10_15_7) AppleWebKit/537.36 (KHTML, like Gecko) Chrome/138.0.0.0 Safari/537.36" version="28.2.2">
  <diagram name="Page-1" id="JKAwszLBWGDqeZSAozcd">
    <mxGraphModel dx="901" dy="494" grid="1" gridSize="10" guides="1" tooltips="1" connect="1" arrows="1" fold="1" page="1" pageScale="1" pageWidth="850" pageHeight="1100" math="0" shadow="0">
      <root>
        <mxCell id="0" />
        <mxCell id="1" parent="0" />
        <mxCell id="AqN_1Fs-m9HtGRQz5aIc-6" value="" style="edgeStyle=orthogonalEdgeStyle;rounded=0;orthogonalLoop=1;jettySize=auto;html=1;" edge="1" parent="1" source="AqN_1Fs-m9HtGRQz5aIc-1" target="AqN_1Fs-m9HtGRQz5aIc-5">
          <mxGeometry relative="1" as="geometry" />
        </mxCell>
        <mxCell id="AqN_1Fs-m9HtGRQz5aIc-1" value="Decide who goes first either by rock paper scissors or other means" style="rounded=1;whiteSpace=wrap;html=1;" vertex="1" parent="1">
          <mxGeometry x="340" y="110" width="140" height="70" as="geometry" />
        </mxCell>
        <mxCell id="AqN_1Fs-m9HtGRQz5aIc-3" style="edgeStyle=orthogonalEdgeStyle;rounded=0;orthogonalLoop=1;jettySize=auto;html=1;" edge="1" parent="1" source="AqN_1Fs-m9HtGRQz5aIc-2" target="AqN_1Fs-m9HtGRQz5aIc-1">
          <mxGeometry relative="1" as="geometry" />
        </mxCell>
        <mxCell id="AqN_1Fs-m9HtGRQz5aIc-2" value="Pre Start Check, Ensure all character card&#39;s stats add to 15" style="rounded=1;whiteSpace=wrap;html=1;" vertex="1" parent="1">
          <mxGeometry x="350" y="20" width="120" height="60" as="geometry" />
        </mxCell>
        <mxCell id="AqN_1Fs-m9HtGRQz5aIc-13" style="edgeStyle=orthogonalEdgeStyle;rounded=0;orthogonalLoop=1;jettySize=auto;html=1;entryX=1;entryY=0.5;entryDx=0;entryDy=0;" edge="1" parent="1" source="AqN_1Fs-m9HtGRQz5aIc-5" target="AqN_1Fs-m9HtGRQz5aIc-8">
          <mxGeometry relative="1" as="geometry" />
        </mxCell>
        <mxCell id="AqN_1Fs-m9HtGRQz5aIc-17" value="" style="edgeStyle=orthogonalEdgeStyle;rounded=0;orthogonalLoop=1;jettySize=auto;html=1;" edge="1" parent="1" source="AqN_1Fs-m9HtGRQz5aIc-5" target="AqN_1Fs-m9HtGRQz5aIc-16">
          <mxGeometry relative="1" as="geometry" />
        </mxCell>
        <mxCell id="AqN_1Fs-m9HtGRQz5aIc-5" value="Player 1" style="shape=umlActor;verticalLabelPosition=bottom;verticalAlign=top;html=1;outlineConnect=0;" vertex="1" parent="1">
          <mxGeometry x="395" y="220" width="30" height="60" as="geometry" />
        </mxCell>
        <mxCell id="AqN_1Fs-m9HtGRQz5aIc-63" style="edgeStyle=orthogonalEdgeStyle;rounded=0;orthogonalLoop=1;jettySize=auto;html=1;entryX=1;entryY=0.5;entryDx=0;entryDy=0;" edge="1" parent="1" source="AqN_1Fs-m9HtGRQz5aIc-8" target="AqN_1Fs-m9HtGRQz5aIc-62">
          <mxGeometry relative="1" as="geometry" />
        </mxCell>
        <mxCell id="AqN_1Fs-m9HtGRQz5aIc-8" value="Draw 1 Mana Card&lt;div&gt;if you have less mana than your Mana stat&lt;/div&gt;" style="rounded=1;whiteSpace=wrap;html=1;" vertex="1" parent="1">
          <mxGeometry x="160" y="220" width="158" height="60" as="geometry" />
        </mxCell>
        <mxCell id="AqN_1Fs-m9HtGRQz5aIc-22" style="edgeStyle=orthogonalEdgeStyle;rounded=0;orthogonalLoop=1;jettySize=auto;html=1;exitX=0;exitY=0.5;exitDx=0;exitDy=0;" edge="1" parent="1" source="AqN_1Fs-m9HtGRQz5aIc-16" target="AqN_1Fs-m9HtGRQz5aIc-18">
          <mxGeometry relative="1" as="geometry">
            <Array as="points">
              <mxPoint x="160" y="360" />
            </Array>
          </mxGeometry>
        </mxCell>
        <mxCell id="AqN_1Fs-m9HtGRQz5aIc-24" style="edgeStyle=orthogonalEdgeStyle;rounded=0;orthogonalLoop=1;jettySize=auto;html=1;" edge="1" parent="1" source="AqN_1Fs-m9HtGRQz5aIc-16" target="AqN_1Fs-m9HtGRQz5aIc-20">
          <mxGeometry relative="1" as="geometry" />
        </mxCell>
        <mxCell id="AqN_1Fs-m9HtGRQz5aIc-64" style="edgeStyle=orthogonalEdgeStyle;rounded=0;orthogonalLoop=1;jettySize=auto;html=1;" edge="1" parent="1" source="AqN_1Fs-m9HtGRQz5aIc-16" target="AqN_1Fs-m9HtGRQz5aIc-21">
          <mxGeometry relative="1" as="geometry">
            <Array as="points">
              <mxPoint x="660" y="360" />
            </Array>
          </mxGeometry>
        </mxCell>
        <mxCell id="AqN_1Fs-m9HtGRQz5aIc-16" value="Attack Player 2&lt;div&gt;Discard n Mana&lt;/div&gt;&lt;div&gt;n = Mana Cost * Multiplier&lt;/div&gt;&lt;div&gt;Powered Attack = Base attack * Multiplier&lt;/div&gt;&lt;div&gt;Multiplier can be anything as long as you have the Mana for it&lt;/div&gt;" style="rounded=1;whiteSpace=wrap;html=1;" vertex="1" parent="1">
          <mxGeometry x="200" y="320" width="420" height="90" as="geometry" />
        </mxCell>
        <mxCell id="AqN_1Fs-m9HtGRQz5aIc-28" style="edgeStyle=orthogonalEdgeStyle;rounded=0;orthogonalLoop=1;jettySize=auto;html=1;" edge="1" parent="1" source="AqN_1Fs-m9HtGRQz5aIc-18" target="AqN_1Fs-m9HtGRQz5aIc-25">
          <mxGeometry relative="1" as="geometry" />
        </mxCell>
        <mxCell id="AqN_1Fs-m9HtGRQz5aIc-29" style="edgeStyle=orthogonalEdgeStyle;rounded=0;orthogonalLoop=1;jettySize=auto;html=1;entryX=0.5;entryY=0;entryDx=0;entryDy=0;" edge="1" parent="1" source="AqN_1Fs-m9HtGRQz5aIc-18" target="AqN_1Fs-m9HtGRQz5aIc-26">
          <mxGeometry relative="1" as="geometry" />
        </mxCell>
        <mxCell id="AqN_1Fs-m9HtGRQz5aIc-30" style="edgeStyle=orthogonalEdgeStyle;rounded=0;orthogonalLoop=1;jettySize=auto;html=1;entryX=0.5;entryY=0;entryDx=0;entryDy=0;" edge="1" parent="1" source="AqN_1Fs-m9HtGRQz5aIc-18" target="AqN_1Fs-m9HtGRQz5aIc-27">
          <mxGeometry relative="1" as="geometry" />
        </mxCell>
        <mxCell id="AqN_1Fs-m9HtGRQz5aIc-18" value="Poke&lt;div&gt;Mana Cost: 0&lt;/div&gt;&lt;div&gt;Rock Paper Scissor&lt;/div&gt;&lt;div&gt;&lt;br&gt;&lt;/div&gt;" style="rounded=1;whiteSpace=wrap;html=1;" vertex="1" parent="1">
          <mxGeometry x="90" y="440" width="140" height="80" as="geometry" />
        </mxCell>
        <mxCell id="AqN_1Fs-m9HtGRQz5aIc-37" style="edgeStyle=orthogonalEdgeStyle;rounded=0;orthogonalLoop=1;jettySize=auto;html=1;" edge="1" parent="1" source="AqN_1Fs-m9HtGRQz5aIc-20" target="AqN_1Fs-m9HtGRQz5aIc-34">
          <mxGeometry relative="1" as="geometry" />
        </mxCell>
        <mxCell id="AqN_1Fs-m9HtGRQz5aIc-38" style="edgeStyle=orthogonalEdgeStyle;rounded=0;orthogonalLoop=1;jettySize=auto;html=1;" edge="1" parent="1" source="AqN_1Fs-m9HtGRQz5aIc-20" target="AqN_1Fs-m9HtGRQz5aIc-36">
          <mxGeometry relative="1" as="geometry" />
        </mxCell>
        <mxCell id="AqN_1Fs-m9HtGRQz5aIc-20" value="50/50 attack&lt;br&gt;&lt;div&gt;Mana Cost: 1&lt;/div&gt;&lt;div&gt;Player 1 selects Odd/Even,&amp;nbsp; announces their selection and both players show a number from 0 to 5 on their hands. The sum of all fingers must match what Player 1 announced for the attack to hit&amp;nbsp;&lt;/div&gt;&lt;div&gt;&lt;br&gt;&lt;/div&gt;" style="rounded=1;whiteSpace=wrap;html=1;" vertex="1" parent="1">
          <mxGeometry x="290" y="440" width="240" height="130" as="geometry" />
        </mxCell>
        <mxCell id="AqN_1Fs-m9HtGRQz5aIc-40" style="edgeStyle=orthogonalEdgeStyle;rounded=0;orthogonalLoop=1;jettySize=auto;html=1;" edge="1" parent="1" source="AqN_1Fs-m9HtGRQz5aIc-21" target="AqN_1Fs-m9HtGRQz5aIc-31">
          <mxGeometry relative="1" as="geometry" />
        </mxCell>
        <mxCell id="AqN_1Fs-m9HtGRQz5aIc-41" style="edgeStyle=orthogonalEdgeStyle;rounded=0;orthogonalLoop=1;jettySize=auto;html=1;" edge="1" parent="1" source="AqN_1Fs-m9HtGRQz5aIc-21" target="AqN_1Fs-m9HtGRQz5aIc-32">
          <mxGeometry relative="1" as="geometry" />
        </mxCell>
        <mxCell id="AqN_1Fs-m9HtGRQz5aIc-42" style="edgeStyle=orthogonalEdgeStyle;rounded=0;orthogonalLoop=1;jettySize=auto;html=1;" edge="1" parent="1" source="AqN_1Fs-m9HtGRQz5aIc-21" target="AqN_1Fs-m9HtGRQz5aIc-33">
          <mxGeometry relative="1" as="geometry" />
        </mxCell>
        <mxCell id="AqN_1Fs-m9HtGRQz5aIc-21" value="2/3 attack&lt;br&gt;&lt;div&gt;Mana Cost: 2&lt;/div&gt;&lt;div&gt;Rock Paper Scissor&lt;/div&gt;&lt;div&gt;&lt;br&gt;&lt;/div&gt;" style="rounded=1;whiteSpace=wrap;html=1;" vertex="1" parent="1">
          <mxGeometry x="590" y="440" width="140" height="80" as="geometry" />
        </mxCell>
        <mxCell id="AqN_1Fs-m9HtGRQz5aIc-61" style="edgeStyle=orthogonalEdgeStyle;rounded=0;orthogonalLoop=1;jettySize=auto;html=1;entryX=0;entryY=0.5;entryDx=0;entryDy=0;" edge="1" parent="1" source="AqN_1Fs-m9HtGRQz5aIc-25" target="AqN_1Fs-m9HtGRQz5aIc-56">
          <mxGeometry relative="1" as="geometry">
            <Array as="points">
              <mxPoint x="80" y="865" />
            </Array>
          </mxGeometry>
        </mxCell>
        <mxCell id="AqN_1Fs-m9HtGRQz5aIc-25" value="Win" style="ellipse;whiteSpace=wrap;html=1;aspect=fixed;" vertex="1" parent="1">
          <mxGeometry x="40" y="570" width="80" height="80" as="geometry" />
        </mxCell>
        <mxCell id="AqN_1Fs-m9HtGRQz5aIc-47" value="" style="edgeStyle=orthogonalEdgeStyle;rounded=0;orthogonalLoop=1;jettySize=auto;html=1;" edge="1" parent="1" source="AqN_1Fs-m9HtGRQz5aIc-26" target="AqN_1Fs-m9HtGRQz5aIc-46">
          <mxGeometry relative="1" as="geometry" />
        </mxCell>
        <mxCell id="AqN_1Fs-m9HtGRQz5aIc-26" value="Draw" style="ellipse;whiteSpace=wrap;html=1;aspect=fixed;" vertex="1" parent="1">
          <mxGeometry x="120" y="570" width="80" height="80" as="geometry" />
        </mxCell>
        <mxCell id="AqN_1Fs-m9HtGRQz5aIc-66" style="edgeStyle=orthogonalEdgeStyle;rounded=0;orthogonalLoop=1;jettySize=auto;html=1;" edge="1" parent="1" source="AqN_1Fs-m9HtGRQz5aIc-27" target="AqN_1Fs-m9HtGRQz5aIc-65">
          <mxGeometry relative="1" as="geometry" />
        </mxCell>
        <mxCell id="AqN_1Fs-m9HtGRQz5aIc-27" value="Lose" style="ellipse;whiteSpace=wrap;html=1;aspect=fixed;" vertex="1" parent="1">
          <mxGeometry x="200" y="570" width="80" height="80" as="geometry" />
        </mxCell>
        <mxCell id="AqN_1Fs-m9HtGRQz5aIc-58" style="edgeStyle=orthogonalEdgeStyle;rounded=0;orthogonalLoop=1;jettySize=auto;html=1;entryX=1;entryY=0.5;entryDx=0;entryDy=0;" edge="1" parent="1" source="AqN_1Fs-m9HtGRQz5aIc-31" target="AqN_1Fs-m9HtGRQz5aIc-56">
          <mxGeometry relative="1" as="geometry">
            <Array as="points">
              <mxPoint x="580" y="865" />
            </Array>
          </mxGeometry>
        </mxCell>
        <mxCell id="AqN_1Fs-m9HtGRQz5aIc-31" value="Win" style="ellipse;whiteSpace=wrap;html=1;aspect=fixed;" vertex="1" parent="1">
          <mxGeometry x="540" y="570" width="80" height="80" as="geometry" />
        </mxCell>
        <mxCell id="AqN_1Fs-m9HtGRQz5aIc-59" style="edgeStyle=orthogonalEdgeStyle;rounded=0;orthogonalLoop=1;jettySize=auto;html=1;entryX=1;entryY=0.5;entryDx=0;entryDy=0;" edge="1" parent="1" source="AqN_1Fs-m9HtGRQz5aIc-32" target="AqN_1Fs-m9HtGRQz5aIc-56">
          <mxGeometry relative="1" as="geometry">
            <Array as="points">
              <mxPoint x="660" y="865" />
            </Array>
          </mxGeometry>
        </mxCell>
        <mxCell id="AqN_1Fs-m9HtGRQz5aIc-32" value="Draw" style="ellipse;whiteSpace=wrap;html=1;aspect=fixed;" vertex="1" parent="1">
          <mxGeometry x="620" y="570" width="80" height="80" as="geometry" />
        </mxCell>
        <mxCell id="AqN_1Fs-m9HtGRQz5aIc-54" style="edgeStyle=orthogonalEdgeStyle;rounded=0;orthogonalLoop=1;jettySize=auto;html=1;" edge="1" parent="1" source="AqN_1Fs-m9HtGRQz5aIc-33" target="AqN_1Fs-m9HtGRQz5aIc-53">
          <mxGeometry relative="1" as="geometry" />
        </mxCell>
        <mxCell id="AqN_1Fs-m9HtGRQz5aIc-33" value="Lose" style="ellipse;whiteSpace=wrap;html=1;aspect=fixed;" vertex="1" parent="1">
          <mxGeometry x="700" y="570" width="80" height="80" as="geometry" />
        </mxCell>
        <mxCell id="AqN_1Fs-m9HtGRQz5aIc-60" style="edgeStyle=orthogonalEdgeStyle;rounded=0;orthogonalLoop=1;jettySize=auto;html=1;entryX=0.5;entryY=0;entryDx=0;entryDy=0;" edge="1" parent="1" source="AqN_1Fs-m9HtGRQz5aIc-34" target="AqN_1Fs-m9HtGRQz5aIc-56">
          <mxGeometry relative="1" as="geometry" />
        </mxCell>
        <mxCell id="AqN_1Fs-m9HtGRQz5aIc-34" value="Win" style="ellipse;whiteSpace=wrap;html=1;aspect=fixed;" vertex="1" parent="1">
          <mxGeometry x="315" y="600" width="80" height="80" as="geometry" />
        </mxCell>
        <mxCell id="AqN_1Fs-m9HtGRQz5aIc-49" value="" style="edgeStyle=orthogonalEdgeStyle;rounded=0;orthogonalLoop=1;jettySize=auto;html=1;" edge="1" parent="1" source="AqN_1Fs-m9HtGRQz5aIc-36" target="AqN_1Fs-m9HtGRQz5aIc-48">
          <mxGeometry relative="1" as="geometry" />
        </mxCell>
        <mxCell id="AqN_1Fs-m9HtGRQz5aIc-36" value="Lose" style="ellipse;whiteSpace=wrap;html=1;aspect=fixed;" vertex="1" parent="1">
          <mxGeometry x="425" y="600" width="80" height="80" as="geometry" />
        </mxCell>
        <mxCell id="AqN_1Fs-m9HtGRQz5aIc-46" value="End Turn" style="rounded=0;whiteSpace=wrap;html=1;" vertex="1" parent="1">
          <mxGeometry x="124" y="680" width="70" height="40" as="geometry" />
        </mxCell>
        <mxCell id="AqN_1Fs-m9HtGRQz5aIc-48" value="End Turn" style="rounded=0;whiteSpace=wrap;html=1;" vertex="1" parent="1">
          <mxGeometry x="430" y="700" width="70" height="40" as="geometry" />
        </mxCell>
        <mxCell id="AqN_1Fs-m9HtGRQz5aIc-53" value="End Turn" style="rounded=0;whiteSpace=wrap;html=1;" vertex="1" parent="1">
          <mxGeometry x="705" y="680" width="70" height="40" as="geometry" />
        </mxCell>
        <mxCell id="AqN_1Fs-m9HtGRQz5aIc-81" style="edgeStyle=orthogonalEdgeStyle;rounded=0;orthogonalLoop=1;jettySize=auto;html=1;" edge="1" parent="1" source="AqN_1Fs-m9HtGRQz5aIc-56" target="AqN_1Fs-m9HtGRQz5aIc-80">
          <mxGeometry relative="1" as="geometry" />
        </mxCell>
        <mxCell id="AqN_1Fs-m9HtGRQz5aIc-56" value="Damage to be done to Player 2&lt;div&gt;Powered Attack - Player 2 Defense stat&lt;/div&gt;" style="rounded=1;whiteSpace=wrap;html=1;" vertex="1" parent="1">
          <mxGeometry x="200" y="820" width="450" height="70" as="geometry" />
        </mxCell>
        <mxCell id="AqN_1Fs-m9HtGRQz5aIc-62" value="End Turn" style="rounded=0;whiteSpace=wrap;html=1;" vertex="1" parent="1">
          <mxGeometry x="60" y="230" width="70" height="40" as="geometry" />
        </mxCell>
        <mxCell id="AqN_1Fs-m9HtGRQz5aIc-83" style="edgeStyle=orthogonalEdgeStyle;rounded=0;orthogonalLoop=1;jettySize=auto;html=1;entryX=0.5;entryY=0;entryDx=0;entryDy=0;" edge="1" parent="1" source="AqN_1Fs-m9HtGRQz5aIc-65" target="AqN_1Fs-m9HtGRQz5aIc-80">
          <mxGeometry relative="1" as="geometry">
            <Array as="points">
              <mxPoint x="690" y="760" />
            </Array>
          </mxGeometry>
        </mxCell>
        <mxCell id="AqN_1Fs-m9HtGRQz5aIc-84" style="edgeStyle=orthogonalEdgeStyle;rounded=0;orthogonalLoop=1;jettySize=auto;html=1;entryX=0.5;entryY=0;entryDx=0;entryDy=0;" edge="1" parent="1" source="AqN_1Fs-m9HtGRQz5aIc-65" target="AqN_1Fs-m9HtGRQz5aIc-85">
          <mxGeometry relative="1" as="geometry">
            <mxPoint x="140" y="940" as="targetPoint" />
          </mxGeometry>
        </mxCell>
        <mxCell id="AqN_1Fs-m9HtGRQz5aIc-65" value="Player 1 gets counterattacked" style="rounded=1;whiteSpace=wrap;html=1;" vertex="1" parent="1">
          <mxGeometry x="210" y="700" width="120" height="80" as="geometry" />
        </mxCell>
        <mxCell id="AqN_1Fs-m9HtGRQz5aIc-67" value="Player 2" style="shape=umlActor;verticalLabelPosition=bottom;verticalAlign=top;html=1;outlineConnect=0;" vertex="1" parent="1">
          <mxGeometry x="380" y="960" width="30" height="60" as="geometry" />
        </mxCell>
        <mxCell id="AqN_1Fs-m9HtGRQz5aIc-87" style="edgeStyle=orthogonalEdgeStyle;rounded=0;orthogonalLoop=1;jettySize=auto;html=1;" edge="1" parent="1" source="AqN_1Fs-m9HtGRQz5aIc-68" target="AqN_1Fs-m9HtGRQz5aIc-70">
          <mxGeometry relative="1" as="geometry" />
        </mxCell>
        <mxCell id="AqN_1Fs-m9HtGRQz5aIc-68" value="n = Mana Cards to discard" style="rounded=1;whiteSpace=wrap;html=1;" vertex="1" parent="1">
          <mxGeometry x="63.5" y="1090" width="120" height="60" as="geometry" />
        </mxCell>
        <mxCell id="AqN_1Fs-m9HtGRQz5aIc-79" value="" style="edgeStyle=orthogonalEdgeStyle;rounded=0;orthogonalLoop=1;jettySize=auto;html=1;" edge="1" parent="1" source="AqN_1Fs-m9HtGRQz5aIc-70" target="AqN_1Fs-m9HtGRQz5aIc-78">
          <mxGeometry relative="1" as="geometry" />
        </mxCell>
        <mxCell id="AqN_1Fs-m9HtGRQz5aIc-70" value="Defense Multiplier = (n+1)" style="rounded=1;whiteSpace=wrap;html=1;" vertex="1" parent="1">
          <mxGeometry x="42" y="1180" width="160" height="60" as="geometry" />
        </mxCell>
        <mxCell id="AqN_1Fs-m9HtGRQz5aIc-78" value="&amp;nbsp;Defending Player End Turn" style="rounded=0;whiteSpace=wrap;html=1;" vertex="1" parent="1">
          <mxGeometry x="42" y="1280" width="163" height="40" as="geometry" />
        </mxCell>
        <mxCell id="AqN_1Fs-m9HtGRQz5aIc-93" style="edgeStyle=orthogonalEdgeStyle;rounded=0;orthogonalLoop=1;jettySize=auto;html=1;" edge="1" parent="1" source="AqN_1Fs-m9HtGRQz5aIc-80" target="AqN_1Fs-m9HtGRQz5aIc-67">
          <mxGeometry relative="1" as="geometry" />
        </mxCell>
        <mxCell id="AqN_1Fs-m9HtGRQz5aIc-80" value="Take the hit for Powered attack - defense, min 1 damage" style="rounded=0;whiteSpace=wrap;html=1;" vertex="1" parent="1">
          <mxGeometry x="630" y="960" width="120" height="60" as="geometry" />
        </mxCell>
        <mxCell id="AqN_1Fs-m9HtGRQz5aIc-88" style="edgeStyle=orthogonalEdgeStyle;rounded=0;orthogonalLoop=1;jettySize=auto;html=1;" edge="1" parent="1" source="AqN_1Fs-m9HtGRQz5aIc-85" target="AqN_1Fs-m9HtGRQz5aIc-68">
          <mxGeometry relative="1" as="geometry" />
        </mxCell>
        <mxCell id="AqN_1Fs-m9HtGRQz5aIc-92" style="edgeStyle=orthogonalEdgeStyle;rounded=0;orthogonalLoop=1;jettySize=auto;html=1;" edge="1" parent="1" source="AqN_1Fs-m9HtGRQz5aIc-85" target="AqN_1Fs-m9HtGRQz5aIc-67">
          <mxGeometry relative="1" as="geometry" />
        </mxCell>
        <mxCell id="AqN_1Fs-m9HtGRQz5aIc-85" value="Discard Mana cards to increase defence, take min 0 damage" style="rounded=0;whiteSpace=wrap;html=1;" vertex="1" parent="1">
          <mxGeometry x="80" y="960" width="120" height="60" as="geometry" />
        </mxCell>
      </root>
    </mxGraphModel>
  </diagram>
</mxfile>
